<?xml version="1.0" encoding="UTF-8" standalone="no"?>
<svg
   xmlns:dc="http://purl.org/dc/elements/1.1/"
   xmlns:cc="http://creativecommons.org/ns#"
   xmlns:rdf="http://www.w3.org/1999/02/22-rdf-syntax-ns#"
   xmlns:svg="http://www.w3.org/2000/svg"
   xmlns="http://www.w3.org/2000/svg"
   xmlns:sodipodi="http://sodipodi.sourceforge.net/DTD/sodipodi-0.dtd"
   xmlns:inkscape="http://www.inkscape.org/namespaces/inkscape"
   width="100mm"
   height="10mm"
   viewBox="0 0 100 10"
   version="1.1"
   id="svg52462"
   inkscape:version="1.0.1 (3bc2e813f5, 2020-09-07)"
   sodipodi:docname="banner.svg">
  <defs
     id="defs52456" />
  <sodipodi:namedview
     id="base"
     pagecolor="#ffffff"
     bordercolor="#666666"
     borderopacity="1.0"
     inkscape:pageopacity="0.0"
     inkscape:pageshadow="2"
     inkscape:zoom="2.8284271"
     inkscape:cx="134.09842"
     inkscape:cy="25.523055"
     inkscape:document-units="mm"
     inkscape:current-layer="layer1"
     inkscape:document-rotation="0"
     showgrid="false"
     inkscape:window-width="1920"
     inkscape:window-height="1227"
     inkscape:window-x="-8"
     inkscape:window-y="-8"
     inkscape:window-maximized="1" />
  <metadata
     id="metadata52459">
    <rdf:RDF>
      <cc:Work
         rdf:about="">
        <dc:format>image/svg+xml</dc:format>
        <dc:type
           rdf:resource="http://purl.org/dc/dcmitype/StillImage" />
        <dc:title></dc:title>
      </cc:Work>
    </rdf:RDF>
  </metadata>
  <g
     inkscape:label="Layer 1"
     inkscape:groupmode="layer"
     id="layer1">
    <rect
       style="opacity:0.99;fill:#2ba02b;fill-opacity:1;stroke:none;stroke-width:1.94544;stroke-opacity:0.992157;paint-order:stroke markers fill"
       id="rect52380-7"
       width="100"
       height="10"
       x="0"
       y="0"
       inkscape:export-filename="D:\Docs\bima\ois.png"
       inkscape:export-xdpi="959.99994"
       inkscape:export-ydpi="959.99994"
       rx="0.26458332"
       ry="0.26458332" />
    <path
       id="path1037-0"
       style="opacity:0.99;fill:#ffffff;fill-opacity:1;stroke-width:0.125592;stroke-linecap:round;stroke-linejoin:round;stroke-opacity:0.992157;paint-order:stroke markers fill"
       inkscape:transform-center-x="-1.0968898e-05"
       inkscape:transform-center-y="2.8221551e-05"
       d="M 7.1213112,7.1213148 C 5.0828276,9.1597901 7.9503975,4.5896932 5.2870081,5.6929089 2.6236032,6.7961246 7.8828377,7.9999906 4.9999898,7.9999906 2.117141,7.9999906 7.3763783,6.7961246 4.7129689,5.6928999 2.0495867,4.5896932 4.9171539,9.1597901 2.8786676,7.1213148 0.8401985,5.0828394 5.4102982,7.9504093 4.3070771,5.2870153 3.2038696,2.6236032 2,7.8828405 2,4.9999953 2,2.1171592 3.2038696,7.3763873 4.3070771,4.7129843 5.4102982,2.0495904 0.8401985,4.9171512 2.8786676,2.8786848 4.9171539,0.8402094 2.0495867,5.4103064 4.7129689,4.3070907 7.3763783,3.203875 2.117141,2 4.9999898,2 7.8828377,2 2.6236032,3.203875 5.2870081,4.3070816 7.9503975,5.4103064 5.0828276,0.8402003 7.1213112,2.8786757 9.1597805,4.9171602 4.5896814,2.0495904 5.6929044,4.7129843 c 1.1032075,2.663403 2.3070744,-2.5958342 2.3070744,0.287011 0,2.8828452 -1.2038669,-2.3763921 -2.3070744,0.287011 -1.103223,2.663403 3.4668761,-0.2041669 1.4284068,1.8343085 z" />
    <text
       xml:space="preserve"
       style="font-style:normal;font-variant:normal;font-weight:600;font-stretch:ultra-condensed;font-size:2.25324px;line-height:1.25;font-family:'Fira Sans Extra Condensed';-inkscape-font-specification:'Fira Sans Extra Condensed, Semi-Bold Ultra-Condensed';letter-spacing:0px;fill:#ffffff;stroke-width:0.0603537"
       x="10.026418"
       y="3.5762925"
       id="text52386-8"
       transform="scale(0.99049775,1.0095934)"><tspan
         sodipodi:role="line"
         x="10.026418"
         y="3.5762925"
         id="tspan52390-5"
         style="fill:#ffffff;stroke-width:0.0603537">BRITISH ISLES</tspan><tspan
         sodipodi:role="line"
         x="10.026418"
         y="6.3928428"
         style="fill:#ffffff;stroke-width:0.0603537"
         id="tspan52452"
         dy="-0.66072756">MICRONATIONAL</tspan><tspan
         sodipodi:role="line"
         x="10.026418"
         y="9.2093925"
         style="fill:#ffffff;stroke-width:0.0603537"
         id="tspan52454"
         dy="-1.3214551">ALLIANCE</tspan></text>
  </g>
</svg>
