<?xml version="1.0" encoding="UTF-8" standalone="no"?>
<svg
   xmlns:dc="http://purl.org/dc/elements/1.1/"
   xmlns:cc="http://creativecommons.org/ns#"
   xmlns:rdf="http://www.w3.org/1999/02/22-rdf-syntax-ns#"
   xmlns:svg="http://www.w3.org/2000/svg"
   xmlns="http://www.w3.org/2000/svg"
   xmlns:sodipodi="http://sodipodi.sourceforge.net/DTD/sodipodi-0.dtd"
   xmlns:inkscape="http://www.inkscape.org/namespaces/inkscape"
   width="100mm"
   height="10mm"
   viewBox="0 0 100 10"
   version="1.1"
   id="svg52462"
   sodipodi:docname="banner.svg"
   inkscape:version="1.0.1 (3bc2e813f5, 2020-09-07)">
  <defs
     id="defs52456" />
  <sodipodi:namedview
     id="base"
     pagecolor="#ffffff"
     bordercolor="#666666"
     borderopacity="1.0"
     inkscape:pageopacity="0.0"
     inkscape:pageshadow="2"
     inkscape:zoom="2.8284271"
     inkscape:cx="210.13138"
     inkscape:cy="-9.0837386"
     inkscape:document-units="mm"
     inkscape:current-layer="layer1"
     inkscape:document-rotation="0"
     showgrid="false"
     inkscape:window-width="1920"
     inkscape:window-height="1227"
     inkscape:window-x="-8"
     inkscape:window-y="-8"
     inkscape:window-maximized="1"
     inkscape:snap-bbox="true"
     inkscape:bbox-paths="true"
     inkscape:bbox-nodes="true"
     inkscape:snap-bbox-edge-midpoints="true"
     inkscape:snap-bbox-midpoints="true" />
  <metadata
     id="metadata52459">
    <rdf:RDF>
      <cc:Work
         rdf:about="">
        <dc:format>image/svg+xml</dc:format>
        <dc:type
           rdf:resource="http://purl.org/dc/dcmitype/StillImage" />
        <dc:title></dc:title>
      </cc:Work>
    </rdf:RDF>
  </metadata>
  <g
     inkscape:label="Layer 1"
     inkscape:groupmode="layer"
     id="layer1">
    <path
       id="rect52380-7"
       style="opacity:0.99;fill:#2ba02b;fill-opacity:1;stroke:none;stroke-width:1.94544;stroke-opacity:0.992157;paint-order:stroke markers fill"
       d="M 0.26458332,0 H 99.735417 C 99.881996,0 100,0.11800416 100,0.26458332 V 9.7354167 C 100,9.8819958 99.881996,10 99.735417,10 H 0.26458332 C 0.11800416,10 0,9.8819958 0,9.7354167 V 0.26458332 C 0,0.11800416 0.11800416,0 0.26458332,0 Z" />
    <path
       id="path1037-0"
       style="opacity:0.99;fill:#ffffff;fill-opacity:1;stroke-width:0.125592;stroke-linecap:round;stroke-linejoin:round;stroke-opacity:0.992157;paint-order:stroke markers fill"
       inkscape:transform-center-x="-1.0968898e-05"
       inkscape:transform-center-y="2.8221551e-05"
       d="M 7.1213112,7.1213148 C 5.0828276,9.1597901 7.9503975,4.5896932 5.2870081,5.6929089 2.6236032,6.7961246 7.8828377,7.9999906 4.9999898,7.9999906 2.117141,7.9999906 7.3763783,6.7961246 4.7129689,5.6928999 2.0495867,4.5896932 4.9171539,9.1597901 2.8786676,7.1213148 0.8401985,5.0828394 5.4102982,7.9504093 4.3070771,5.2870153 3.2038696,2.6236032 2,7.8828405 2,4.9999953 2,2.1171592 3.2038696,7.3763873 4.3070771,4.7129843 5.4102982,2.0495904 0.8401985,4.9171512 2.8786676,2.8786848 4.9171539,0.8402094 2.0495867,5.4103064 4.7129689,4.3070907 7.3763783,3.203875 2.117141,2 4.9999898,2 7.8828377,2 2.6236032,3.203875 5.2870081,4.3070816 7.9503975,5.4103064 5.0828276,0.8402003 7.1213112,2.8786757 9.1597805,4.9171602 4.5896814,2.0495904 5.6929044,4.7129843 c 1.1032075,2.663403 2.3070744,-2.5958342 2.3070744,0.287011 0,2.8828452 -1.2038669,-2.3763921 -2.3070744,0.287011 -1.103223,2.663403 3.4668761,-0.2041669 1.4284068,1.8343085 z" />
    <g
       aria-label="BRITISH ISLES
MICRONATIONAL
ALLIANCE"
       transform="scale(0.99049775,1.0095934)"
       id="text52386-8"
       style="font-style:normal;font-variant:normal;font-weight:600;font-stretch:ultra-condensed;font-size:2.25324px;line-height:1.25;font-family:'Fira Sans Extra Condensed';-inkscape-font-specification:'Fira Sans Extra Condensed, Semi-Bold Ultra-Condensed';letter-spacing:0px;fill:#ffffff;stroke-width:0.0603537">
      <path
         d="m 10.812799,2.7516066 q 0.14646,0.031545 0.232083,0.1194218 0.08788,0.087876 0.08788,0.2546161 0,0.2298305 -0.155474,0.3402392 -0.15322,0.1104088 -0.419103,0.1104088 H 10.145839 V 2.0170504 h 0.360519 q 0.272642,0 0.421356,0.1013958 0.150967,0.1013958 0.150967,0.2974277 0,0.1306879 -0.07436,0.216311 -0.0721,0.085623 -0.191525,0.1194217 z M 10.4658,2.2468809 v 0.4055832 h 0.08112 q 0.110409,0 0.15998,-0.051825 0.04957,-0.054078 0.04957,-0.1554735 0,-0.1013958 -0.05408,-0.1487139 -0.05182,-0.049571 -0.16674,-0.049571 z m 0.09464,1.0928214 q 0.121675,0 0.182512,-0.051824 0.06309,-0.054078 0.06309,-0.1757527 0,-0.1239283 -0.05858,-0.1825125 -0.05633,-0.058584 -0.18026,-0.058584 H 10.4658 v 0.4686739 z"
         style="fill:#ffffff;stroke-width:0.0603537"
         id="path53155" />
      <path
         d="M 11.997999,3.5762925 11.732117,2.9589047 h -0.02028 -0.09689 v 0.6173878 h -0.31996 V 2.0170504 h 0.392064 q 0.57007,0 0.57007,0.4641674 0,0.1397009 -0.06084,0.2501097 -0.05858,0.1081555 -0.182512,0.1667397 l 0.324466,0.6782253 z M 11.698318,2.735834 q 0.123928,0 0.178006,-0.060837 0.05408,-0.060838 0.05408,-0.1937787 0,-0.1216749 -0.05858,-0.1780059 -0.05633,-0.058584 -0.187019,-0.058584 h -0.06985 V 2.735834 Z"
         style="fill:#ffffff;stroke-width:0.0603537"
         id="path53157" />
      <path
         d="m 12.773113,2.0170504 v 1.5592421 h -0.31996 V 2.0170504 Z"
         style="fill:#ffffff;stroke-width:0.0603537"
         id="path53159" />
      <path
         d="m 13.895225,2.0170504 -0.0338,0.2456031 H 13.55048 v 1.313639 h -0.317707 v -1.313639 h -0.32672 V 2.0170504 Z"
         style="fill:#ffffff;stroke-width:0.0603537"
         id="path53161" />
      <path
         d="M 14.33235,2.0170504 V 3.5762925 H 14.01239 V 2.0170504 Z"
         style="fill:#ffffff;stroke-width:0.0603537"
         id="path53163" />
      <path
         d="m 14.988041,1.9809985 q 0.139701,0 0.247856,0.049571 0.108156,0.049571 0.196032,0.1464606 L 15.287722,2.3437702 Q 15.157034,2.219842 15.017333,2.219842 q -0.08112,0 -0.128435,0.049571 -0.04732,0.047318 -0.04732,0.1284346 0,0.078863 0.05182,0.130688 0.05182,0.051824 0.196032,0.1104087 0.130688,0.054078 0.209551,0.1149153 0.08112,0.060837 0.123928,0.1509671 0.04506,0.09013 0.04506,0.2230707 0,0.1374477 -0.06309,0.2478564 -0.06309,0.1104088 -0.180259,0.1734995 -0.117168,0.063091 -0.272642,0.063091 -0.15998,0 -0.279402,-0.056331 -0.117168,-0.058584 -0.211804,-0.1599801 l 0.155473,-0.1712462 q 0.07886,0.072104 0.153221,0.1104087 0.07661,0.036052 0.162233,0.036052 0.09914,0 0.150967,-0.058584 0.05408,-0.060837 0.05408,-0.1622333 0,-0.092383 -0.04957,-0.1487138 -0.04957,-0.058584 -0.18026,-0.112662 -0.211804,-0.087876 -0.301934,-0.1960319 -0.09013,-0.1081555 -0.09013,-0.2726421 0,-0.1284346 0.06084,-0.2275772 0.06084,-0.099143 0.168993,-0.1554736 0.108156,-0.056331 0.24335,-0.056331 z"
         style="fill:#ffffff;stroke-width:0.0603537"
         id="path53165" />
      <path
         d="M 16.31745,3.5762925 V 2.8890543 h -0.365025 v 0.6872382 h -0.31996 V 2.0170504 h 0.31996 V 2.6389446 H 16.31745 V 2.0170504 h 0.31996 v 1.5592421 z"
         style="fill:#ffffff;stroke-width:0.0603537"
         id="path53167" />
      <path
         d="M 17.62883,2.0170504 V 3.5762925 H 17.30887 V 2.0170504 Z"
         style="fill:#ffffff;stroke-width:0.0603537"
         id="path53169" />
      <path
         d="m 18.284521,1.9809985 q 0.139701,0 0.247857,0.049571 0.108155,0.049571 0.196031,0.1464606 L 18.584202,2.3437702 Q 18.453514,2.219842 18.313813,2.219842 q -0.08112,0 -0.128434,0.049571 -0.04732,0.047318 -0.04732,0.1284346 0,0.078863 0.05182,0.130688 0.05183,0.051824 0.196032,0.1104087 0.130688,0.054078 0.209551,0.1149153 0.08112,0.060837 0.123928,0.1509671 0.04507,0.09013 0.04507,0.2230707 0,0.1374477 -0.06309,0.2478564 -0.06309,0.1104088 -0.18026,0.1734995 -0.117168,0.063091 -0.272642,0.063091 -0.15998,0 -0.279401,-0.056331 -0.117169,-0.058584 -0.211805,-0.1599801 l 0.155474,-0.1712462 q 0.07886,0.072104 0.15322,0.1104087 0.07661,0.036052 0.162233,0.036052 0.09914,0 0.150967,-0.058584 0.05408,-0.060837 0.05408,-0.1622333 0,-0.092383 -0.04957,-0.1487138 -0.04957,-0.058584 -0.180259,-0.112662 -0.211805,-0.087876 -0.301935,-0.1960319 -0.09013,-0.1081555 -0.09013,-0.2726421 0,-0.1284346 0.06084,-0.2275772 0.06084,-0.099143 0.168993,-0.1554736 0.108156,-0.056331 0.24335,-0.056331 z"
         style="fill:#ffffff;stroke-width:0.0603537"
         id="path53171" />
      <path
         d="m 19.248905,2.0170504 v 1.3023727 h 0.495713 l -0.0338,0.2568694 H 18.928945 V 2.0170504 Z"
         style="fill:#ffffff;stroke-width:0.0603537"
         id="path53173" />
      <path
         d="m 20.677459,2.0170504 -0.0338,0.2320837 h -0.446141 v 0.4191027 h 0.38981 v 0.2298304 h -0.38981 v 0.4438883 h 0.475433 v 0.234337 H 19.877558 V 2.0170504 Z"
         style="fill:#ffffff;stroke-width:0.0603537"
         id="path53175" />
      <path
         d="m 21.247524,1.9809985 q 0.139701,0 0.247857,0.049571 0.108155,0.049571 0.196032,0.1464606 L 21.547205,2.3437702 Q 21.416517,2.219842 21.276816,2.219842 q -0.08112,0 -0.128434,0.049571 -0.04732,0.047318 -0.04732,0.1284346 0,0.078863 0.05182,0.130688 0.05183,0.051824 0.196032,0.1104087 0.130688,0.054078 0.209551,0.1149153 0.08112,0.060837 0.123929,0.1509671 0.04506,0.09013 0.04506,0.2230707 0,0.1374477 -0.06309,0.2478564 -0.06309,0.1104088 -0.180259,0.1734995 -0.117169,0.063091 -0.272643,0.063091 -0.15998,0 -0.279401,-0.056331 -0.117169,-0.058584 -0.211805,-0.1599801 L 20.87574,3.2247871 q 0.07886,0.072104 0.15322,0.1104087 0.07661,0.036052 0.162233,0.036052 0.09914,0 0.150967,-0.058584 0.05408,-0.060837 0.05408,-0.1622333 0,-0.092383 -0.04957,-0.1487138 -0.04957,-0.058584 -0.180259,-0.112662 -0.211805,-0.087876 -0.301935,-0.1960319 -0.09013,-0.1081555 -0.09013,-0.2726421 0,-0.1284346 0.06084,-0.2275772 0.06084,-0.099143 0.168993,-0.1554736 0.108156,-0.056331 0.24335,-0.056331 z"
         style="fill:#ffffff;stroke-width:0.0603537"
         id="path53177" />
      <path
         d="m 11.450465,5.7321151 h -0.301934 l -0.02028,-0.6399202 -0.0045,-0.1374476 q -0.0023,-0.069851 -0.0045,-0.1622333 -0.0023,-0.092383 -0.0023,-0.2027916 l 0.0023,-0.1284347 -0.193778,1.1018344 H 10.62578 L 10.420735,4.4612877 q 0.0068,0.1487138 0.0068,0.2951744 0,0.1667398 -0.0068,0.3424925 l -0.02028,0.6331605 h -0.297428 l 0.09689,-1.5592422 h 0.394317 l 0.187019,1.0838085 0.171246,-1.0838085 h 0.401077 z"
         style="fill:#ffffff;stroke-width:0.0603537"
         id="path53179" />
      <path
         d="m 11.966454,4.1728729 v 1.5592422 h -0.31996 V 4.1728729 Z"
         style="fill:#ffffff;stroke-width:0.0603537"
         id="path53181" />
      <path
         d="m 12.741567,4.1368211 q 0.121675,0 0.216311,0.042812 0.09689,0.040558 0.184765,0.1239282 l -0.150967,0.1780059 q -0.05633,-0.051825 -0.112662,-0.07661 -0.05408,-0.027039 -0.117168,-0.027039 -0.128435,0 -0.200538,0.1329412 -0.0721,0.1306879 -0.0721,0.4393818 0,0.3019341 0.0721,0.4348753 0.0721,0.1329412 0.202791,0.1329412 0.06985,0 0.121675,-0.027039 0.05408,-0.029292 0.121675,-0.087876 l 0.148714,0.1734995 q -0.178006,0.1915254 -0.414596,0.1915254 -0.268136,0 -0.425863,-0.2050448 -0.157726,-0.2072981 -0.157726,-0.6128813 0,-0.2681356 0.07436,-0.450648 0.07436,-0.1825125 0.205045,-0.2726421 0.132941,-0.09013 0.304188,-0.09013 z"
         style="fill:#ffffff;stroke-width:0.0603537"
         id="path53183" />
      <path
         d="M 13.989861,5.7321151 13.723978,5.1147273 h -0.02028 -0.09689 V 5.7321151 H 13.28685 V 4.1728729 h 0.392064 q 0.570069,0 0.570069,0.4641675 0,0.1397009 -0.06084,0.2501096 -0.05858,0.1081556 -0.182513,0.1667398 L 14.3301,5.7321151 Z M 13.69018,4.8916565 q 0.123928,0 0.178006,-0.060837 0.05408,-0.060837 0.05408,-0.1937786 0,-0.121675 -0.05858,-0.178006 -0.05633,-0.058584 -0.187019,-0.058584 h -0.06985 v 0.4912063 z"
         style="fill:#ffffff;stroke-width:0.0603537"
         id="path53185" />
      <path
         d="m 14.951992,4.1368211 q 0.279401,0 0.430369,0.2027916 0.150967,0.2027916 0.150967,0.6128813 0,0.4055832 -0.150967,0.6106281 -0.150968,0.2050448 -0.430369,0.2050448 -0.281655,0 -0.432622,-0.2027916 -0.148714,-0.2027916 -0.148714,-0.6128813 0,-0.40333 0.150967,-0.6083748 0.150967,-0.2072981 0.430369,-0.2072981 z m 0,0.2388434 q -0.128435,0 -0.189273,0.1329412 -0.06084,0.1306879 -0.06084,0.4438883 0,0.3177069 0.06084,0.4483948 0.06084,0.1284347 0.189273,0.1284347 0.08788,0 0.141954,-0.054078 0.05408,-0.054078 0.08112,-0.1802592 0.02704,-0.1261814 0.02704,-0.3424925 0,-0.3132004 -0.06084,-0.4438883 -0.06084,-0.1329412 -0.189272,-0.1329412 z"
         style="fill:#ffffff;stroke-width:0.0603537"
         id="path53187" />
      <path
         d="m 16.723038,5.7321151 h -0.39657 l -0.365025,-1.257308 0.0068,0.063091 q 0.01577,0.1487139 0.02478,0.2771486 0.01127,0.1284347 0.01127,0.2929212 V 5.7321151 H 15.724853 V 4.1728729 h 0.39657 l 0.367278,1.2595613 q -0.01803,-0.099143 -0.03154,-0.2478565 -0.01352,-0.150967 -0.01352,-0.3086939 V 4.1728729 h 0.279402 z"
         style="fill:#ffffff;stroke-width:0.0603537"
         id="path53189" />
      <path
         d="m 17.660386,5.7321151 -0.06985,-0.3560119 h -0.374037 l -0.06985,0.3560119 h -0.315454 l 0.385305,-1.5592422 h 0.38305 l 0.383051,1.5592422 z M 17.261562,5.1440194 h 0.283909 L 17.403516,4.4094631 Z"
         style="fill:#ffffff;stroke-width:0.0603537"
         id="path53191" />
      <path
         d="m 18.861359,4.1728729 -0.0338,0.2456032 h -0.310947 v 1.313639 h -0.317707 v -1.313639 h -0.32672 V 4.1728729 Z"
         style="fill:#ffffff;stroke-width:0.0603537"
         id="path53193" />
      <path
         d="m 19.298484,4.1728729 v 1.5592422 h -0.31996 V 4.1728729 Z"
         style="fill:#ffffff;stroke-width:0.0603537"
         id="path53195" />
      <path
         d="m 20.071344,4.1368211 q 0.279401,0 0.430368,0.2027916 0.150967,0.2027916 0.150967,0.6128813 0,0.4055832 -0.150967,0.6106281 -0.150967,0.2050448 -0.430368,0.2050448 -0.281655,0 -0.432623,-0.2027916 -0.148713,-0.2027916 -0.148713,-0.6128813 0,-0.40333 0.150967,-0.6083748 0.150967,-0.2072981 0.430369,-0.2072981 z m 0,0.2388434 q -0.128435,0 -0.189273,0.1329412 -0.06084,0.1306879 -0.06084,0.4438883 0,0.3177069 0.06084,0.4483948 0.06084,0.1284347 0.189273,0.1284347 0.08788,0 0.141954,-0.054078 0.05408,-0.054078 0.08112,-0.1802592 0.02704,-0.1261814 0.02704,-0.3424925 0,-0.3132004 -0.06084,-0.4438883 -0.06084,-0.1329412 -0.189272,-0.1329412 z"
         style="fill:#ffffff;stroke-width:0.0603537"
         id="path53197" />
      <path
         d="m 21.84239,5.7321151 h -0.39657 l -0.365025,-1.257308 0.0068,0.063091 q 0.01577,0.1487139 0.02479,0.2771486 0.01127,0.1284347 0.01127,0.2929212 V 5.7321151 H 20.844205 V 4.1728729 h 0.39657 l 0.367278,1.2595613 q -0.01803,-0.099143 -0.03155,-0.2478565 -0.01352,-0.150967 -0.01352,-0.3086939 V 4.1728729 h 0.279402 z"
         style="fill:#ffffff;stroke-width:0.0603537"
         id="path53199" />
      <path
         d="m 22.779737,5.7321151 -0.06985,-0.3560119 h -0.374038 l -0.06985,0.3560119 H 21.950545 L 22.335849,4.1728729 H 22.7189 l 0.383051,1.5592422 z M 22.380914,5.1440194 h 0.283908 L 22.522868,4.4094631 Z"
         style="fill:#ffffff;stroke-width:0.0603537"
         id="path53201" />
      <path
         d="m 23.530065,4.1728729 v 1.3023728 h 0.495713 l -0.0338,0.2568694 H 23.210105 V 4.1728729 Z"
         style="fill:#ffffff;stroke-width:0.0603537"
         id="path53203" />
      <path
         d="m 10.844344,7.8879377 -0.06985,-0.356012 h -0.374037 l -0.06985,0.356012 h -0.315453 l 0.385304,-1.5592422 h 0.38305 l 0.383051,1.5592422 z M 10.44552,7.299842 h 0.283909 L 10.587475,6.5652857 Z"
         style="fill:#ffffff;stroke-width:0.0603537"
         id="path53205" />
      <path
         d="m 11.594672,6.3286955 v 1.3023728 h 0.495712 l -0.0338,0.2568694 H 11.274711 V 6.3286955 Z"
         style="fill:#ffffff;stroke-width:0.0603537"
         id="path53207" />
      <path
         d="m 12.543285,6.3286955 v 1.3023728 h 0.495712 l -0.0338,0.2568694 H 12.223325 V 6.3286955 Z"
         style="fill:#ffffff;stroke-width:0.0603537"
         id="path53209" />
      <path
         d="m 13.491898,6.3286955 v 1.5592422 h -0.31996 V 6.3286955 Z"
         style="fill:#ffffff;stroke-width:0.0603537"
         id="path53211" />
      <path
         d="m 14.429244,7.8879377 -0.06985,-0.356012 h -0.374038 l -0.06985,0.356012 h -0.315454 l 0.385304,-1.5592422 h 0.383051 l 0.383051,1.5592422 z M 14.03042,7.299842 h 0.283909 L 14.172374,6.5652857 Z"
         style="fill:#ffffff;stroke-width:0.0603537"
         id="path53213" />
      <path
         d="m 15.857797,7.8879377 h -0.396571 l -0.365025,-1.257308 0.0068,0.063091 q 0.01577,0.1487139 0.02479,0.2771485 0.01127,0.1284347 0.01127,0.2929213 V 7.8879377 H 14.859611 V 6.3286955 h 0.396571 l 0.367278,1.2595612 q -0.01803,-0.099142 -0.03155,-0.2478564 -0.01352,-0.1509671 -0.01352,-0.3086939 V 6.3286955 h 0.279402 z"
         style="fill:#ffffff;stroke-width:0.0603537"
         id="path53215" />
      <path
         d="m 16.632911,6.2926437 q 0.121675,0 0.216311,0.042812 0.09689,0.040558 0.184766,0.1239282 l -0.150967,0.178006 q -0.05633,-0.051825 -0.112662,-0.07661 -0.05408,-0.027039 -0.117169,-0.027039 -0.128435,0 -0.200538,0.1329411 -0.0721,0.130688 -0.0721,0.4393818 0,0.3019342 0.0721,0.4348754 0.0721,0.1329412 0.202791,0.1329412 0.06985,0 0.121675,-0.027039 0.05408,-0.029292 0.121675,-0.087876 l 0.148714,0.1734995 q -0.178006,0.1915254 -0.414596,0.1915254 -0.268136,0 -0.425862,-0.2050448 -0.157727,-0.2072981 -0.157727,-0.6128814 0,-0.2681355 0.07436,-0.450648 0.07436,-0.1825124 0.205045,-0.272642 0.132941,-0.09013 0.304187,-0.09013 z"
         style="fill:#ffffff;stroke-width:0.0603537"
         id="path53217" />
      <path
         d="m 17.978094,6.3286955 -0.0338,0.2320837 h -0.446141 v 0.4191027 h 0.38981 v 0.2298305 h -0.38981 v 0.4438883 h 0.475434 v 0.234337 H 17.178194 V 6.3286955 Z"
         style="fill:#ffffff;stroke-width:0.0603537"
         id="path53219" />
    </g>
  </g>
</svg>
