<?xml version="1.0" encoding="UTF-8" standalone="no"?>
<svg
   xmlns:dc="http://purl.org/dc/elements/1.1/"
   xmlns:cc="http://creativecommons.org/ns#"
   xmlns:rdf="http://www.w3.org/1999/02/22-rdf-syntax-ns#"
   xmlns:svg="http://www.w3.org/2000/svg"
   xmlns="http://www.w3.org/2000/svg"
   xmlns:sodipodi="http://sodipodi.sourceforge.net/DTD/sodipodi-0.dtd"
   xmlns:inkscape="http://www.inkscape.org/namespaces/inkscape"
   width="100mm"
   height="10mm"
   viewBox="0 0 100 10"
   version="1.1"
   id="svg52462"
   inkscape:version="1.0.1 (3bc2e813f5, 2020-09-07)"
   sodipodi:docname="ois banner.svg">
  <defs
     id="defs52456" />
  <sodipodi:namedview
     id="base"
     pagecolor="#ffffff"
     bordercolor="#666666"
     borderopacity="1.0"
     inkscape:pageopacity="0.0"
     inkscape:pageshadow="2"
     inkscape:zoom="1.4142136"
     inkscape:cx="225.66643"
     inkscape:cy="-2.3722877"
     inkscape:document-units="mm"
     inkscape:current-layer="layer1"
     inkscape:document-rotation="0"
     showgrid="false"
     inkscape:window-width="1920"
     inkscape:window-height="1227"
     inkscape:window-x="-8"
     inkscape:window-y="-8"
     inkscape:window-maximized="1"
     inkscape:snap-bbox="true"
     inkscape:bbox-paths="true"
     inkscape:bbox-nodes="true"
     inkscape:snap-bbox-edge-midpoints="true"
     inkscape:snap-bbox-midpoints="true" />
  <metadata
     id="metadata52459">
    <rdf:RDF>
      <cc:Work
         rdf:about="">
        <dc:format>image/svg+xml</dc:format>
        <dc:type
           rdf:resource="http://purl.org/dc/dcmitype/StillImage" />
        <dc:title></dc:title>
      </cc:Work>
    </rdf:RDF>
  </metadata>
  <g
     inkscape:label="Layer 1"
     inkscape:groupmode="layer"
     id="layer1">
    <path
       id="rect52380-7"
       style="opacity:0.99;fill:#2ba02b;fill-opacity:1;stroke:none;stroke-width:1.94544;stroke-opacity:0.992157;paint-order:stroke markers fill"
       d="M 0.26458332,0 H 99.735417 C 99.881996,0 100,0.11800416 100,0.26458332 V 9.7354167 C 100,9.8819958 99.881996,10 99.735417,10 H 0.26458332 C 0.11800416,10 0,9.8819958 0,9.7354167 V 0.26458332 C 0,0.11800416 0.11800416,0 0.26458332,0 Z" />
    <g
       aria-label="OFFICE OF
INTERNATIONAL
STATISTICS"
       transform="scale(0.99049775,1.0095934)"
       id="text52386"
       style="font-style:normal;font-variant:normal;font-weight:600;font-stretch:ultra-condensed;font-size:2.45534px;line-height:1.25;font-family:'Fira Sans Extra Condensed';-inkscape-font-specification:'Fira Sans Extra Condensed, Semi-Bold Ultra-Condensed';letter-spacing:0px;fill:#ffffff;stroke-width:0.0657674">
      <path
         d="m 10.717379,1.9809983 q 0.304462,0 0.46897,0.2209806 0.164507,0.2209806 0.164507,0.6678524 0,0.4419612 -0.164507,0.6653972 -0.164508,0.2234359 -0.46897,0.2234359 -0.306918,0 -0.471426,-0.2209806 -0.162052,-0.2209806 -0.162052,-0.6678525 0,-0.4395058 0.164508,-0.6629417 0.164508,-0.2258913 0.46897,-0.2258913 z m 0,0.260266 q -0.139955,0 -0.206249,0.1448651 -0.06629,0.1424097 -0.06629,0.4837019 0,0.346203 0.06629,0.4886127 0.06629,0.1399544 0.206249,0.1399544 0.09576,0 0.154686,-0.058928 0.05893,-0.058928 0.08839,-0.1964272 0.02946,-0.137499 0.02946,-0.3732117 0,-0.3412922 -0.06629,-0.4837019 -0.06629,-0.1448651 -0.206248,-0.1448651 z"
         style="fill:#ffffff;stroke-width:0.0657674"
         id="path53091" />
      <path
         d="M 11.55956,3.7193789 V 2.0202837 h 0.844637 l -0.03683,0.2529 h -0.459149 v 0.4959787 h 0.400221 v 0.2529 h -0.400221 v 0.6973165 z"
         style="fill:#ffffff;stroke-width:0.0657674"
         id="path53093" />
      <path
         d="M 12.549062,3.7193789 V 2.0202837 h 0.844637 l -0.03683,0.2529 H 12.89772 v 0.4959787 h 0.40022 v 0.2529 h -0.40022 v 0.6973165 z"
         style="fill:#ffffff;stroke-width:0.0657674"
         id="path53095" />
      <path
         d="M 13.887222,2.0202837 V 3.7193789 H 13.538563 V 2.0202837 Z"
         style="fill:#ffffff;stroke-width:0.0657674"
         id="path53097" />
      <path
         d="m 14.731856,1.9809983 q 0.132589,0 0.235713,0.046651 0.10558,0.044196 0.201338,0.1350436 l -0.164508,0.1939719 q -0.06138,-0.056473 -0.122767,-0.083482 -0.05893,-0.029464 -0.127677,-0.029464 -0.139955,0 -0.218526,0.144865 -0.07857,0.1424097 -0.07857,0.4787913 0,0.3290155 0.07857,0.4738806 0.07857,0.1448651 0.220981,0.1448651 0.07611,0 0.132588,-0.029464 0.05893,-0.031919 0.132589,-0.095758 l 0.162052,0.1890612 q -0.193972,0.2087039 -0.451783,0.2087039 -0.292185,0 -0.464059,-0.2234359 -0.171874,-0.2258913 -0.171874,-0.6678525 0,-0.2921854 0.08103,-0.491068 0.08103,-0.1988825 0.223436,-0.2970961 0.144865,-0.098214 0.33147,-0.098214 z"
         style="fill:#ffffff;stroke-width:0.0657674"
         id="path53099" />
      <path
         d="m 16.197693,2.0202837 -0.03683,0.2529 H 15.674706 V 2.729877 h 0.424774 v 0.2504446 h -0.424774 v 0.483702 h 0.518077 V 3.7193789 H 15.326048 V 2.0202837 Z"
         style="fill:#ffffff;stroke-width:0.0657674"
         id="path53101" />
      <path
         d="m 17.442546,1.9809983 q 0.304462,0 0.46897,0.2209806 0.164508,0.2209806 0.164508,0.6678524 0,0.4419612 -0.164508,0.6653972 -0.164508,0.2234359 -0.46897,0.2234359 -0.306918,0 -0.471425,-0.2209806 -0.162053,-0.2209806 -0.162053,-0.6678525 0,-0.4395058 0.164508,-0.6629417 0.164508,-0.2258913 0.46897,-0.2258913 z m 0,0.260266 q -0.139954,0 -0.206249,0.1448651 -0.06629,0.1424097 -0.06629,0.4837019 0,0.346203 0.06629,0.4886127 0.0663,0.1399544 0.206249,0.1399544 0.09576,0 0.154686,-0.058928 0.05893,-0.058928 0.08839,-0.1964272 0.02946,-0.137499 0.02946,-0.3732117 0,-0.3412922 -0.0663,-0.4837019 Q 17.5825,2.2412643 17.442546,2.2412643 Z"
         style="fill:#ffffff;stroke-width:0.0657674"
         id="path53103" />
      <path
         d="M 18.284727,3.7193789 V 2.0202837 h 0.844637 l -0.03683,0.2529 h -0.459148 v 0.4959787 h 0.40022 v 0.2529 h -0.40022 v 0.6973165 z"
         style="fill:#ffffff;stroke-width:0.0657674"
         id="path53105" />
      <path
         d="M 10.484121,4.102946 V 5.8020412 H 10.135463 V 4.102946 Z"
         style="fill:#ffffff;stroke-width:0.0657674"
         id="path53107" />
      <path
         d="m 11.832101,5.8020412 h -0.43214 l -0.397765,-1.3700797 0.0074,0.06875 q 0.01719,0.1620525 0.02701,0.3020068 0.01228,0.1399544 0.01228,0.3191942 V 5.8020412 H 10.744385 V 4.102946 h 0.43214 l 0.400221,1.372535 Q 11.557103,5.367446 11.542371,5.2053936 11.527639,5.0408858 11.527639,4.869012 V 4.102946 h 0.304462 z"
         style="fill:#ffffff;stroke-width:0.0657674"
         id="path53109" />
      <path
         d="M 13.05486,4.102946 13.01803,4.370578 H 12.679193 V 5.8020412 H 12.33299 V 4.370578 H 11.976966 V 4.102946 Z"
         style="fill:#ffffff;stroke-width:0.0657674"
         id="path53111" />
      <path
         d="m 14.054179,4.102946 -0.03683,0.2529 h -0.486157 v 0.4566932 h 0.424773 v 0.2504447 h -0.424773 v 0.4837019 h 0.518076 V 5.8020412 H 13.182533 V 4.102946 Z"
         style="fill:#ffffff;stroke-width:0.0657674"
         id="path53113" />
      <path
         d="M 15.011758,5.8020412 14.722028,5.129278 h -0.0221 -0.10558 V 5.8020412 H 14.245692 V 4.102946 h 0.427229 q 0.621201,0 0.621201,0.5058 0,0.1522311 -0.06629,0.2725427 -0.06384,0.1178563 -0.198882,0.1816952 l 0.353568,0.7390573 z m -0.32656,-0.9158418 q 0.135044,0 0.193972,-0.066294 0.05893,-0.066294 0.05893,-0.2111592 0,-0.1325884 -0.06384,-0.1939719 -0.06138,-0.063839 -0.203793,-0.063839 h -0.07612 v 0.5352641 z"
         style="fill:#ffffff;stroke-width:0.0657674"
         id="path53115" />
      <path
         d="m 16.595452,5.8020412 h -0.43214 l -0.397765,-1.3700797 0.0074,0.06875 q 0.01719,0.1620525 0.02701,0.3020068 0.01228,0.1399544 0.01228,0.3191942 V 5.8020412 H 15.507737 V 4.102946 h 0.432139 l 0.400221,1.372535 Q 16.320454,5.367446 16.305722,5.2053936 16.29099,5.0408858 16.29099,4.869012 V 4.102946 h 0.304462 z"
         style="fill:#ffffff;stroke-width:0.0657674"
         id="path53117" />
      <path
         d="m 17.616873,5.8020412 -0.07611,-0.3879437 h -0.407587 l -0.07612,0.3879437 H 16.713308 L 17.133171,4.102946 h 0.417408 l 0.417408,1.6990952 z M 17.182278,5.1611975 h 0.309373 L 17.336965,4.3607566 Z"
         style="fill:#ffffff;stroke-width:0.0657674"
         id="path53119" />
      <path
         d="m 18.925565,4.102946 -0.03683,0.267632 H 18.549898 V 5.8020412 H 18.203695 V 4.370578 H 17.847671 V 4.102946 Z"
         style="fill:#ffffff;stroke-width:0.0657674"
         id="path53121" />
      <path
         d="M 19.401897,4.102946 V 5.8020412 H 19.053239 V 4.102946 Z"
         style="fill:#ffffff;stroke-width:0.0657674"
         id="path53123" />
      <path
         d="m 20.244077,4.0636605 q 0.304462,0 0.46897,0.2209806 0.164507,0.2209806 0.164507,0.6678525 0,0.4419611 -0.164507,0.6653971 -0.164508,0.2234359 -0.46897,0.2234359 -0.306918,0 -0.471425,-0.2209806 -0.162053,-0.2209806 -0.162053,-0.6678524 0,-0.4395059 0.164508,-0.6629418 0.164508,-0.2258913 0.46897,-0.2258913 z m 0,0.260266 q -0.139955,0 -0.206249,0.1448651 -0.06629,0.1424097 -0.06629,0.483702 0,0.3462029 0.06629,0.4886126 0.06629,0.1399544 0.206249,0.1399544 0.09576,0 0.154686,-0.058928 0.05893,-0.058928 0.08839,-0.1964272 0.02946,-0.137499 0.02946,-0.3732116 0,-0.3412923 -0.0663,-0.483702 -0.06629,-0.1448651 -0.206248,-0.1448651 z"
         style="fill:#ffffff;stroke-width:0.0657674"
         id="path53125" />
      <path
         d="m 22.173974,5.8020412 h -0.43214 l -0.397765,-1.3700797 0.0074,0.06875 q 0.01719,0.1620525 0.02701,0.3020068 0.01228,0.1399544 0.01228,0.3191942 V 5.8020412 H 21.086258 V 4.102946 h 0.43214 l 0.400221,1.372535 Q 21.898976,5.367446 21.884244,5.2053936 21.869512,5.0408858 21.869512,4.869012 V 4.102946 h 0.304462 z"
         style="fill:#ffffff;stroke-width:0.0657674"
         id="path53127" />
      <path
         d="m 23.195394,5.8020412 -0.07612,-0.3879437 h -0.407587 l -0.07611,0.3879437 H 22.291829 L 22.711692,4.102946 H 23.1291 l 0.417408,1.6990952 z M 22.760799,5.1611975 h 0.309373 L 22.915485,4.3607566 Z"
         style="fill:#ffffff;stroke-width:0.0657674"
         id="path53129" />
      <path
         d="m 24.013022,4.102946 v 1.4191864 h 0.540174 l -0.03683,0.2799088 H 23.664363 V 4.102946 Z"
         style="fill:#ffffff;stroke-width:0.0657674"
         id="path53131" />
      <path
         d="m 10.589701,6.1463227 q 0.152231,0 0.270087,0.054018 0.117857,0.054017 0.213615,0.1595971 l -0.157142,0.1816952 q -0.14241,-0.1350437 -0.294641,-0.1350437 -0.08839,0 -0.139954,0.054018 -0.05156,0.051562 -0.05156,0.1399543 0,0.085937 0.05647,0.1424097 0.05647,0.056473 0.213614,0.1203117 0.14241,0.058928 0.228347,0.1252223 0.08839,0.066294 0.135044,0.1645078 0.04911,0.098214 0.04911,0.2430787 0,0.1497757 -0.06875,0.2700873 -0.06875,0.1203117 -0.196427,0.1890612 -0.127678,0.06875 -0.297096,0.06875 -0.17433,0 -0.304463,-0.061383 -0.127677,-0.063839 -0.230802,-0.1743291 L 10.18457,7.5016704 q 0.08594,0.078571 0.166963,0.1203116 0.08348,0.039286 0.176784,0.039286 0.108035,0 0.164508,-0.063839 0.05893,-0.066294 0.05893,-0.1767844 0,-0.100669 -0.05402,-0.1620525 -0.05402,-0.063839 -0.196427,-0.122767 -0.230802,-0.095758 -0.329016,-0.2136145 -0.09821,-0.1178564 -0.09821,-0.2970962 0,-0.1399544 0.06629,-0.2479893 0.06629,-0.108035 0.18415,-0.1694185 0.117857,-0.061383 0.265177,-0.061383 z"
         style="fill:#ffffff;stroke-width:0.0657674"
         id="path53133" />
      <path
         d="m 12.202852,6.1856082 -0.03683,0.267632 H 11.827185 V 7.8847034 H 11.480982 V 6.4532402 h -0.356024 v -0.267632 z"
         style="fill:#ffffff;stroke-width:0.0657674"
         id="path53135" />
      <path
         d="m 12.968911,7.8847034 -0.07611,-0.3879437 h -0.407587 l -0.07611,0.3879437 h -0.343748 l 0.419863,-1.6990952 h 0.417408 l 0.417408,1.6990952 z M 12.534316,7.2438597 h 0.309373 L 12.689002,6.4434189 Z"
         style="fill:#ffffff;stroke-width:0.0657674"
         id="path53137" />
      <path
         d="m 14.277603,6.1856082 -0.03683,0.267632 H 13.901936 V 7.8847034 H 13.555733 V 6.4532402 h -0.356024 v -0.267632 z"
         style="fill:#ffffff;stroke-width:0.0657674"
         id="path53139" />
      <path
         d="M 14.753935,6.1856082 V 7.8847034 H 14.405277 V 6.1856082 Z"
         style="fill:#ffffff;stroke-width:0.0657674"
         id="path53141" />
      <path
         d="m 15.468437,6.1463227 q 0.152231,0 0.270087,0.054018 0.117856,0.054017 0.213614,0.1595971 l -0.157141,0.1816952 q -0.14241,-0.1350437 -0.294641,-0.1350437 -0.08839,0 -0.139954,0.054018 -0.05156,0.051562 -0.05156,0.1399543 0,0.085937 0.05647,0.1424097 0.05647,0.056473 0.213615,0.1203117 0.14241,0.058928 0.228346,0.1252223 0.08839,0.066294 0.135044,0.1645078 0.04911,0.098214 0.04911,0.2430787 0,0.1497757 -0.06875,0.2700873 -0.06875,0.1203117 -0.196427,0.1890612 -0.127677,0.06875 -0.297096,0.06875 -0.174329,0 -0.304462,-0.061383 -0.127678,-0.063839 -0.230802,-0.1743291 l 0.169418,-0.1866058 q 0.08594,0.078571 0.166964,0.1203116 0.08348,0.039286 0.176784,0.039286 0.108035,0 0.164508,-0.063839 0.05893,-0.066294 0.05893,-0.1767844 0,-0.100669 -0.05402,-0.1620525 -0.05402,-0.063839 -0.196427,-0.122767 -0.230802,-0.095758 -0.329015,-0.2136145 -0.09821,-0.1178564 -0.09821,-0.2970962 0,-0.1399544 0.06629,-0.2479893 0.0663,-0.108035 0.184151,-0.1694185 0.117856,-0.061383 0.265177,-0.061383 z"
         style="fill:#ffffff;stroke-width:0.0657674"
         id="path53143" />
      <path
         d="m 17.081587,6.1856082 -0.03683,0.267632 H 16.70592 V 7.8847034 H 16.359718 V 6.4532402 h -0.356025 v -0.267632 z"
         style="fill:#ffffff;stroke-width:0.0657674"
         id="path53145" />
      <path
         d="M 17.55792,6.1856082 V 7.8847034 H 17.209261 V 6.1856082 Z"
         style="fill:#ffffff;stroke-width:0.0657674"
         id="path53147" />
      <path
         d="m 18.402554,6.1463227 q 0.132589,0 0.235713,0.046652 0.105579,0.044196 0.201338,0.1350437 l -0.164508,0.1939718 q -0.06138,-0.056473 -0.122767,-0.083481 -0.05893,-0.029464 -0.127678,-0.029464 -0.139954,0 -0.218525,0.1448651 -0.07857,0.1424097 -0.07857,0.4787912 0,0.3290156 0.07857,0.4738807 0.07857,0.144865 0.220981,0.144865 0.07611,0 0.132588,-0.029464 0.05893,-0.031919 0.132588,-0.095758 l 0.162053,0.1890611 q -0.193972,0.2087039 -0.451783,0.2087039 -0.292185,0 -0.464059,-0.2234359 -0.171874,-0.2258913 -0.171874,-0.6678525 0,-0.2921854 0.08103,-0.4910679 0.08103,-0.1988826 0.223436,-0.2970962 0.144865,-0.098214 0.331471,-0.098214 z"
         style="fill:#ffffff;stroke-width:0.0657674"
         id="path53149" />
      <path
         d="m 19.443617,6.1463227 q 0.152231,0 0.270088,0.054018 0.117856,0.054017 0.213614,0.1595971 l -0.157142,0.1816952 q -0.142409,-0.1350437 -0.29464,-0.1350437 -0.08839,0 -0.139955,0.054018 -0.05156,0.051562 -0.05156,0.1399543 0,0.085937 0.05647,0.1424097 0.05647,0.056473 0.213614,0.1203117 0.14241,0.058928 0.228347,0.1252223 0.08839,0.066294 0.135044,0.1645078 0.04911,0.098214 0.04911,0.2430787 0,0.1497757 -0.06875,0.2700873 -0.06875,0.1203117 -0.196427,0.1890612 -0.127678,0.06875 -0.297096,0.06875 -0.174329,0 -0.304462,-0.061383 -0.127678,-0.063839 -0.230802,-0.1743291 l 0.169418,-0.1866058 q 0.08594,0.078571 0.166963,0.1203116 0.08348,0.039286 0.176785,0.039286 0.108035,0 0.164507,-0.063839 0.05893,-0.066294 0.05893,-0.1767844 0,-0.100669 -0.05402,-0.1620525 -0.05402,-0.063839 -0.196427,-0.122767 -0.230802,-0.095758 -0.329016,-0.2136145 -0.09821,-0.1178564 -0.09821,-0.2970962 0,-0.1399544 0.06629,-0.2479893 0.06629,-0.108035 0.18415,-0.1694185 0.117857,-0.061383 0.265177,-0.061383 z"
         style="fill:#ffffff;stroke-width:0.0657674"
         id="path53151" />
    </g>
    <path
       id="path1037-0"
       style="opacity:0.99;fill:#ffffff;fill-opacity:1;stroke-width:0.125592;stroke-linecap:round;stroke-linejoin:round;stroke-opacity:0.992157;paint-order:stroke markers fill"
       inkscape:transform-center-x="-1.0968898e-05"
       inkscape:transform-center-y="2.8221551e-05"
       d="M 7.1213112,7.1213148 C 5.0828276,9.1597901 7.9503975,4.5896932 5.2870081,5.6929089 2.6236032,6.7961246 7.8828377,7.9999906 4.9999898,7.9999906 2.117141,7.9999906 7.3763783,6.7961246 4.7129689,5.6928999 2.0495867,4.5896932 4.9171539,9.1597901 2.8786676,7.1213148 0.8401985,5.0828394 5.4102982,7.9504093 4.3070771,5.2870153 3.2038696,2.6236032 2,7.8828405 2,4.9999953 2,2.1171592 3.2038696,7.3763873 4.3070771,4.7129843 5.4102982,2.0495904 0.8401985,4.9171512 2.8786676,2.8786848 4.9171539,0.8402094 2.0495867,5.4103064 4.7129689,4.3070907 7.3763783,3.203875 2.117141,2 4.9999898,2 7.8828377,2 2.6236032,3.203875 5.2870081,4.3070816 7.9503975,5.4103064 5.0828276,0.8402003 7.1213112,2.8786757 9.1597805,4.9171602 4.5896814,2.0495904 5.6929044,4.7129843 c 1.1032075,2.663403 2.3070744,-2.5958342 2.3070744,0.287011 0,2.8828452 -1.2038669,-2.3763921 -2.3070744,0.287011 -1.103223,2.663403 3.4668761,-0.2041669 1.4284068,1.8343085 z" />
  </g>
</svg>
